<svg width="40" height="40" viewBox="0 0 40 40" fill="none" xmlns="http://www.w3.org/2000/svg">
<g clip-path="url(#clip0_196_384)">
<path d="M33.2226 6.64453H6.64453V33.2223H33.2226V6.64453Z" fill="white"/>
<path d="M38.5032 8.12934C37.6123 4.45895 35.325 2.16211 31.6021 1.30334C27.7743 0.446951 23.9145 0.000244141 20.0203 0.000244141C16.1259 0.000244141 12.2983 0.446951 8.57649 1.33798C4.92009 2.19556 2.42579 4.21887 1.50277 7.9251C0.514335 11.8344 0.000488281 15.881 0.000488281 19.9276C0.000488281 23.9743 0.445346 27.8871 1.36717 31.7283C2.25451 35.3999 4.54422 37.698 8.26723 38.5555C15.8525 40.3029 23.71 40.3029 31.2927 38.5555C34.9504 37.698 37.4434 35.6722 38.3641 31.9337C39.3549 28.0245 39.8676 23.9755 39.8676 19.9264C39.8676 15.8774 39.4251 11.9694 38.5022 8.12815L38.5032 8.12934ZM10.0788 23.567C9.97649 23.463 9.87419 23.3603 9.7719 23.2576C9.32822 22.7417 9.05346 22.0561 8.98567 21.3371L8.81557 11.457C8.78107 10.7033 9.29374 10.4262 9.90749 10.8729L19.2697 17.6642L10.5236 23.9408L10.08 23.5658L10.0788 23.567ZM31.0882 21.4051C31.0216 22.2616 30.6445 23.0521 29.9963 23.6339L21.1133 30.7012C20.4663 31.1825 19.6111 31.1825 18.9605 30.7012L12.5053 25.4876L11.2742 24.5274L20.0523 18.2161L24.3582 15.1298L30.4054 10.8048C30.9193 10.6006 31.2583 10.8753 31.2583 11.5262L31.0882 21.4051Z" fill="#FE6446"/>
</g>
<defs>
<clipPath id="clip0_196_384">
<rect width="40" height="39.8671" fill="white"/>
</clipPath>
</defs>
</svg>
