<svg width="40" height="40" viewBox="0 0 40 40" fill="none" xmlns="http://www.w3.org/2000/svg">
<g clip-path="url(#clip0_196_330)">
<path fill-rule="evenodd" clip-rule="evenodd" d="M19.2 40C10.149 40 5.62355 40 2.81178 37.1882C6.50233e-07 34.3765 4.69881e-07 29.8509 7.08415e-08 20.7999L3.00569e-10 19.1999C-3.9874e-07 10.1489 -6.50233e-07 5.62341 2.81177 2.81162C5.62355 6.50232e-07 10.149 4.61884e-07 19.2 6.96339e-08L20.8 2.92947e-10C29.851 -3.91962e-07 34.3765 -6.50232e-07 37.1882 2.81161C40 5.62336 40 10.1489 40 19.1999V20.7999C40 29.8509 40 34.3765 37.1882 37.1882C34.3765 40 29.851 40 20.8 40H19.2Z" fill="#0077FF"/>
<path d="M23.1304 24.6504C22.0527 24.3812 21.2971 23.4171 21.2971 22.3114V9.28513C21.2971 8.02927 22.4838 7.10822 23.7079 7.41399L31.4597 9.35045C32.5374 9.61963 33.2931 10.5837 33.2931 11.6894V24.7157C33.2931 25.9715 32.1064 26.8926 30.8823 26.5869L23.1304 24.6504Z" fill="white"/>
<path d="M8.54058 30.6487C7.46285 30.3795 6.70721 29.4154 6.70721 28.3097V15.2834C6.70721 14.0276 7.8939 13.1065 9.11799 13.4123L16.8699 15.3487C17.9475 15.6179 18.7032 16.582 18.7032 17.6877V30.714C18.7032 31.9698 17.5165 32.8909 16.2924 32.5851L8.54058 30.6487Z" fill="white"/>
<path d="M15.8355 27.6497C14.7578 27.3804 14.0021 26.4164 14.0021 25.3107V12.2844C14.0021 11.0286 15.1889 10.1075 16.413 10.4133L24.1648 12.3497C25.2425 12.6189 25.9981 13.583 25.9981 14.6887V27.7149C25.9981 28.9708 24.8115 29.8919 23.5873 29.5861L15.8355 27.6497Z" fill="white"/>
<path d="M20.9091 28.9205C20.5696 28.8341 20.328 28.5339 20.3161 28.1838L19.9789 18.2357C19.8814 16.919 18.904 15.8719 17.8827 15.5635C17.8253 15.5462 17.7641 15.5695 17.7301 15.6189C17.6956 15.669 17.709 15.7384 17.7571 15.7757C18.0093 15.9709 18.7035 16.608 18.7035 17.707L18.7014 28.3611L20.9091 28.9205Z" fill="#2B71F6"/>
<path d="M28.2058 25.9186C27.8666 25.8338 27.6247 25.5345 27.6129 25.185L27.2756 15.2376C27.178 13.921 26.2007 12.8739 25.1794 12.5655C25.122 12.5482 25.0608 12.5715 25.0269 12.6208C24.9923 12.671 25.0057 12.7404 25.0538 12.7776C25.306 12.9729 26.0002 13.61 26.0002 14.7089L25.9981 25.3667L28.2058 25.9186Z" fill="#2B71F6"/>
</g>
<defs>
<clipPath id="clip0_196_330">
<rect width="40" height="40" fill="white"/>
</clipPath>
</defs>
</svg>
