<svg width="127" height="40" viewBox="0 0 127 40" fill="none" xmlns="http://www.w3.org/2000/svg">
<rect width="40" height="40" rx="9" fill="#DD1212"/>
<path d="M8 33V11.9091H21.5629V15.1119H11.8207V20.055H15.8885C17.5019 20.055 18.8853 20.3194 20.0387 20.848C21.199 21.3698 22.0881 22.1078 22.706 23.0621C23.3239 24.0165 23.6328 25.139 23.6328 26.4297C23.6328 27.7273 23.3239 28.8704 22.706 29.859C22.0881 30.8408 21.199 31.6097 20.0387 32.1658C18.8853 32.7219 17.5019 33 15.8885 33H8ZM11.8207 29.8693H15.8885C16.7398 29.8693 17.4607 29.708 18.0511 29.3853C18.6416 29.0626 19.0878 28.637 19.3899 28.1083C19.6989 27.5797 19.8533 27.0064 19.8533 26.3885C19.8533 25.496 19.5101 24.7373 18.8235 24.1126C18.1438 23.4809 17.1655 23.1651 15.8885 23.1651H11.8207V29.8693Z" fill="white"/>
<path d="M25.7945 18H23.9197L27.3331 9H29.5015L32.9197 18H31.0449L28.4552 10.8457H28.3794L25.7945 18ZM25.856 14.4712H30.9691V15.7808H25.856V14.4712Z" fill="white"/>
<path d="M53.4347 27V12.4545H62.7884V14.6634H56.0696V18.0724H58.875C59.9877 18.0724 60.9418 18.2547 61.7372 18.6193C62.5374 18.9792 63.1506 19.4882 63.5767 20.1463C64.0028 20.8045 64.2159 21.5786 64.2159 22.4688C64.2159 23.3636 64.0028 24.152 63.5767 24.8338C63.1506 25.5109 62.5374 26.0412 61.7372 26.4247C60.9418 26.8082 59.9877 27 58.875 27H53.4347ZM56.0696 24.8409H58.875C59.4621 24.8409 59.9593 24.7296 60.3665 24.5071C60.7737 24.2846 61.0814 23.991 61.2898 23.6264C61.5028 23.2618 61.6094 22.8665 61.6094 22.4403C61.6094 21.8248 61.3726 21.3016 60.8991 20.8707C60.4304 20.4351 59.7557 20.2173 58.875 20.2173H56.0696V24.8409ZM69.5462 27.2202C68.8549 27.2202 68.2322 27.0971 67.6783 26.8509C67.129 26.5999 66.6934 26.2306 66.3714 25.7429C66.0542 25.2552 65.8956 24.6539 65.8956 23.9389C65.8956 23.3234 66.0092 22.8144 66.2365 22.4119C66.4638 22.0095 66.7739 21.6875 67.1669 21.446C67.5599 21.2045 68.0026 21.0223 68.495 20.8991C68.9922 20.7713 69.5059 20.679 70.0362 20.6222C70.6754 20.5559 71.1939 20.4967 71.5916 20.4446C71.9893 20.3878 72.2782 20.3026 72.4581 20.1889C72.6428 20.0705 72.7351 19.8883 72.7351 19.642V19.5994C72.7351 19.0644 72.5765 18.6501 72.2592 18.3565C71.942 18.063 71.4851 17.9162 70.8885 17.9162C70.2588 17.9162 69.7592 18.0535 69.3899 18.3281C69.0253 18.6027 68.7791 18.9271 68.6513 19.3011L66.2507 18.9602C66.4401 18.2973 66.7526 17.7434 67.1882 17.2983C67.6238 16.8485 68.1565 16.5123 68.7862 16.2898C69.416 16.0625 70.112 15.9489 70.8743 15.9489C71.3999 15.9489 71.9231 16.0104 72.4439 16.1335C72.9647 16.2566 73.4406 16.4602 73.8714 16.7443C74.3023 17.0237 74.648 17.4048 74.9084 17.8878C75.1735 18.3707 75.3061 18.9744 75.3061 19.6989V27H72.8345V25.5014H72.7493C72.593 25.8045 72.3729 26.0885 72.0888 26.3537C71.8094 26.6141 71.4567 26.8248 71.0305 26.9858C70.6091 27.142 70.1143 27.2202 69.5462 27.2202ZM70.2138 25.331C70.7299 25.331 71.1773 25.2292 71.5561 25.0256C71.9349 24.8172 72.2261 24.5426 72.4297 24.2017C72.638 23.8608 72.7422 23.4891 72.7422 23.0866V21.8011C72.6617 21.8674 72.5244 21.929 72.3303 21.9858C72.1409 22.0426 71.9278 22.0923 71.6911 22.1349C71.4543 22.1776 71.2199 22.2154 70.9879 22.2486C70.7559 22.2817 70.5547 22.3101 70.3842 22.3338C70.0007 22.3859 69.6574 22.4711 69.3544 22.5895C69.0514 22.7079 68.8123 22.8736 68.6371 23.0866C68.4619 23.295 68.3743 23.5649 68.3743 23.8963C68.3743 24.3698 68.5471 24.7273 68.8928 24.9688C69.2384 25.2102 69.6787 25.331 70.2138 25.331ZM77.2876 24.0099H79.8374C79.861 24.4171 80.0433 24.732 80.3842 24.9545C80.7251 25.1771 81.1679 25.2884 81.7124 25.2884C82.2663 25.2884 82.7327 25.1676 83.1115 24.9261C83.495 24.6799 83.6868 24.3082 83.6868 23.8111C83.6868 23.5175 83.6134 23.2595 83.4666 23.0369C83.3198 22.8097 83.1139 22.6345 82.8487 22.5114C82.5836 22.3883 82.2711 22.3267 81.9112 22.3267H80.2422V20.5014H81.9112C82.4463 20.5014 82.8511 20.3783 83.1257 20.1321C83.4051 19.8859 83.5447 19.5758 83.5447 19.2017C83.5447 18.7992 83.398 18.4725 83.1044 18.2216C82.8156 17.9706 82.4155 17.8452 81.9041 17.8452C81.3928 17.8452 80.9666 17.9612 80.6257 18.1932C80.2895 18.4252 80.1143 18.7235 80.1001 19.0881H77.5646C77.5741 18.4536 77.7635 17.902 78.1328 17.4332C78.5069 16.9645 79.0088 16.5999 79.6385 16.3395C80.273 16.0791 80.9879 15.9489 81.7834 15.9489C82.6357 15.9489 83.3719 16.0767 83.9922 16.3324C84.6125 16.5881 85.0907 16.9455 85.4268 17.4048C85.763 17.8594 85.9311 18.3944 85.9311 19.0099C85.9311 19.6018 85.7464 20.0919 85.3771 20.4801C85.0078 20.8636 84.5107 21.1383 83.8857 21.304V21.4176C84.3165 21.4413 84.7048 21.5644 85.0504 21.7869C85.3961 22.0047 85.6707 22.3007 85.8743 22.6747C86.0779 23.0488 86.1797 23.482 86.1797 23.9744C86.1797 24.642 85.9879 25.2197 85.6044 25.7074C85.2209 26.1903 84.6929 26.562 84.0206 26.8224C83.353 27.0829 82.5883 27.2131 81.7266 27.2131C80.8885 27.2131 80.138 27.0876 79.4751 26.8366C78.817 26.581 78.2938 26.214 77.9055 25.7358C77.5173 25.2576 77.3113 24.6823 77.2876 24.0099ZM90.1854 27H87.3729L92.4936 12.4545H95.7464L100.874 27H98.0618L94.1768 15.4375H94.0632L90.1854 27ZM90.2777 21.2969H97.9482V23.4134H90.2777V21.2969ZM102.676 31.0909V16.0909H105.205V17.8949H105.354C105.487 17.6297 105.674 17.348 105.915 17.0497C106.157 16.7467 106.483 16.4886 106.895 16.2756C107.307 16.0578 107.833 15.9489 108.472 15.9489C109.315 15.9489 110.075 16.1643 110.752 16.5952C111.434 17.0213 111.973 17.6534 112.371 18.4915C112.774 19.3248 112.975 20.3475 112.975 21.5597C112.975 22.7576 112.778 23.7756 112.385 24.6136C111.992 25.4517 111.457 26.0909 110.78 26.5312C110.103 26.9716 109.336 27.1918 108.479 27.1918C107.854 27.1918 107.336 27.0876 106.924 26.8793C106.512 26.6709 106.18 26.42 105.929 26.1264C105.683 25.8281 105.491 25.5464 105.354 25.2812H105.248V31.0909H102.676ZM105.198 21.5455C105.198 22.2509 105.297 22.8688 105.496 23.3991C105.7 23.9295 105.991 24.3437 106.37 24.642C106.753 24.9356 107.217 25.0824 107.762 25.0824C108.33 25.0824 108.806 24.9309 109.189 24.6278C109.573 24.3201 109.862 23.901 110.056 23.3707C110.255 22.8357 110.354 22.2273 110.354 21.5455C110.354 20.8684 110.257 20.267 110.063 19.7415C109.869 19.2159 109.58 18.804 109.196 18.5057C108.813 18.2074 108.335 18.0582 107.762 18.0582C107.212 18.0582 106.746 18.2027 106.363 18.4915C105.979 18.7803 105.688 19.1851 105.489 19.706C105.295 20.2268 105.198 20.84 105.198 21.5455ZM115.176 31.0909V16.0909H117.705V17.8949H117.854C117.987 17.6297 118.174 17.348 118.415 17.0497C118.657 16.7467 118.983 16.4886 119.395 16.2756C119.807 16.0578 120.333 15.9489 120.972 15.9489C121.815 15.9489 122.575 16.1643 123.252 16.5952C123.934 17.0213 124.473 17.6534 124.871 18.4915C125.274 19.3248 125.475 20.3475 125.475 21.5597C125.475 22.7576 125.278 23.7756 124.885 24.6136C124.492 25.4517 123.957 26.0909 123.28 26.5312C122.603 26.9716 121.836 27.1918 120.979 27.1918C120.354 27.1918 119.836 27.0876 119.424 26.8793C119.012 26.6709 118.68 26.42 118.429 26.1264C118.183 25.8281 117.991 25.5464 117.854 25.2812H117.748V31.0909H115.176ZM117.698 21.5455C117.698 22.2509 117.797 22.8688 117.996 23.3991C118.2 23.9295 118.491 24.3437 118.87 24.642C119.253 24.9356 119.717 25.0824 120.262 25.0824C120.83 25.0824 121.306 24.9309 121.689 24.6278C122.073 24.3201 122.362 23.901 122.556 23.3707C122.755 22.8357 122.854 22.2273 122.854 21.5455C122.854 20.8684 122.757 20.267 122.563 19.7415C122.369 19.2159 122.08 18.804 121.696 18.5057C121.313 18.2074 120.835 18.0582 120.262 18.0582C119.712 18.0582 119.246 18.2027 118.863 18.4915C118.479 18.7803 118.188 19.1851 117.989 19.706C117.795 20.2268 117.698 20.84 117.698 21.5455Z" fill="black"/>
</svg>
