<svg width="17" height="20" viewBox="0 0 17 20" fill="none" xmlns="http://www.w3.org/2000/svg">
<path d="M1.25083 5.61542C0.560374 5.61542 0 6.17579 0 6.86625V11.8696C0 12.5601 0.560374 13.1204 1.25083 13.1204C1.9413 13.1204 2.50167 12.5601 2.50167 11.8696V6.86625C2.50167 6.17517 1.9413 5.61542 1.25083 5.61542Z" fill="#7F7F7F"/>
<path d="M15.0099 5.61542C14.3194 5.61542 13.759 6.17579 13.759 6.86625V11.8696C13.759 12.5601 14.3194 13.1204 15.0099 13.1204C15.7003 13.1204 16.2607 12.5601 16.2607 11.8696V6.86625C16.2607 6.17517 15.7003 5.61542 15.0099 5.61542Z" fill="#7F7F7F"/>
<path d="M3.12708 15.622H4.37791V18.7491C4.37791 19.4396 4.93828 20 5.62874 20C6.31921 20 6.87958 19.4396 6.87958 18.7491V15.622H9.38125V18.7491C9.38125 19.4396 9.94162 20 10.6321 20C11.3225 20 11.8829 19.4396 11.8829 18.7491V15.622H13.1338V6.24078H3.12708V15.622Z" fill="#7F7F7F"/>
<path d="M11.0843 1.5827L11.7266 0.470087C11.8135 0.319987 11.7622 0.129235 11.6115 0.0423016C11.4626 -0.0446314 11.2706 0.00665284 11.1843 0.157378L10.5583 1.24185C9.83905 0.841585 9.01225 0.612057 8.13041 0.612057C7.2492 0.612057 6.4224 0.841585 5.70254 1.24248L5.07588 0.156753C4.98894 0.00727826 4.79882 -0.044006 4.64809 0.0423016C4.49924 0.128609 4.44796 0.319362 4.53364 0.469462L5.17657 1.5827C3.93637 2.49331 3.12708 3.95804 3.12708 5.6154H13.1338C13.1338 3.95804 12.3245 2.49331 11.0843 1.5827ZM6.25416 3.73914C5.90831 3.73914 5.62874 3.45958 5.62874 3.11373C5.62874 2.76787 5.90831 2.48831 6.25416 2.48831C6.60002 2.48831 6.87958 2.76787 6.87958 3.11373C6.87958 3.45958 6.60002 3.73914 6.25416 3.73914ZM10.0067 3.73914C9.66081 3.73914 9.38125 3.45958 9.38125 3.11373C9.38125 2.76787 9.66081 2.48831 10.0067 2.48831C10.3525 2.48831 10.6321 2.76787 10.6321 3.11373C10.6321 3.45958 10.3525 3.73914 10.0067 3.73914Z" fill="#7F7F7F"/>
</svg>
