<svg width="17" height="20" viewBox="0 0 17 20" fill="none" xmlns="http://www.w3.org/2000/svg">
<g clip-path="url(#clip0_227_350)">
<path d="M26.7029 9.04321H28.6196L32.5696 19.2932H30.6362L29.6779 16.5849H25.5779L24.6196 19.3015H22.7613L26.7029 9.03488V9.04321ZM26.0696 15.2099H29.2029L27.6612 10.8015H27.6196L26.0696 15.2182V15.2099ZM33.5029 11.8682H35.0529V12.8682H35.0862C35.3112 12.4432 35.6362 12.1349 36.0446 11.9515C36.4628 11.7604 36.9181 11.6637 37.3779 11.6682C37.9612 11.6682 38.4779 11.7765 38.9112 11.9849C39.3529 12.1849 39.7112 12.4682 39.9946 12.8349C40.2862 13.1849 40.5029 13.6015 40.6446 14.0849C40.7911 14.5827 40.8641 15.0993 40.8612 15.6182C40.8612 16.1182 40.7946 16.6015 40.6612 17.0682C40.5476 17.518 40.3497 17.9422 40.0779 18.3182C39.8112 18.6765 39.4862 18.9599 39.0779 19.1849C38.6779 19.3932 38.2029 19.5015 37.6612 19.5015C37.4177 19.5007 37.1748 19.4756 36.9362 19.4265C36.701 19.3886 36.4715 19.3214 36.2529 19.2265C36.0312 19.1321 35.8214 19.0119 35.6279 18.8682C35.4477 18.716 35.293 18.5359 35.1696 18.3349H35.1446V22.0432H33.5029V11.8682ZM39.2279 15.5932C39.2279 15.2599 39.1862 14.9265 39.0946 14.6099C39.0153 14.3108 38.8826 14.0284 38.7029 13.7765C38.5369 13.5352 38.3172 13.3356 38.0612 13.1932C37.7909 13.0356 37.4825 12.9549 37.1696 12.9599C36.4779 12.9599 35.9529 13.2015 35.6029 13.6765C35.2319 14.2445 35.0509 14.9157 35.0862 15.5932C35.0862 15.9599 35.1279 16.3099 35.2112 16.6432C35.3112 16.9599 35.4446 17.2265 35.6279 17.4599C35.8086 17.6965 36.0421 17.8875 36.3098 18.0177C36.5775 18.148 36.8719 18.2138 37.1696 18.2099C37.4819 18.2187 37.7913 18.1475 38.0685 18.0031C38.3456 17.8587 38.5812 17.6459 38.7529 17.3849C38.9196 17.1349 39.0446 16.8599 39.1112 16.5515C39.1862 16.2349 39.2279 15.9182 39.2279 15.5932ZM42.4362 11.8682H43.9862V12.8682H44.0196C44.2446 12.4432 44.5696 12.1349 44.9779 11.9515C45.3962 11.7604 45.8514 11.6637 46.3112 11.6682C46.9029 11.6682 47.4112 11.7765 47.8446 11.9849C48.2862 12.1849 48.6446 12.4682 48.9279 12.8349C49.2196 13.1849 49.4362 13.6015 49.5779 14.0849C49.7245 14.5827 49.7975 15.0993 49.7946 15.6182C49.7946 16.1182 49.7279 16.6015 49.5946 17.0682C49.481 17.518 49.283 17.9422 49.0112 18.3182C48.7446 18.6765 48.4196 18.9599 48.0112 19.1849C47.6112 19.3932 47.1362 19.5015 46.5946 19.5015C46.351 19.5007 46.1081 19.4756 45.8696 19.4265C45.6344 19.3886 45.4048 19.3214 45.1862 19.2265C44.9645 19.1321 44.7547 19.0119 44.5612 18.8682C44.3811 18.716 44.2263 18.5359 44.1029 18.3349H44.0779V22.0432H42.4279V11.8682H42.4362ZM48.1612 15.5932C48.1612 15.2599 48.1112 14.9265 48.0279 14.6099C47.9512 14.3113 47.8214 14.029 47.6446 13.7765C47.4761 13.5343 47.2536 13.3345 46.9946 13.1932C46.7242 13.0356 46.4158 12.9549 46.1029 12.9599C45.4112 12.9599 44.8946 13.2015 44.5362 13.6765C44.1657 14.2447 43.9849 14.9158 44.0196 15.5932C44.0196 15.9599 44.0612 16.3099 44.1446 16.6432C44.2446 16.9599 44.3862 17.2265 44.5612 17.4599C44.7419 17.6965 44.9754 17.8875 45.2431 18.0177C45.5108 18.148 45.8053 18.2138 46.1029 18.2099C46.4153 18.2187 46.7247 18.1475 47.0018 18.0031C47.2789 17.8587 47.5145 17.6459 47.6863 17.3849C47.8529 17.1349 47.9779 16.8599 48.0446 16.5515C48.1279 16.2349 48.1612 15.9182 48.1612 15.5932ZM56.8779 15.8765C56.8779 16.2682 56.9529 16.6099 57.0863 16.8765C57.2196 17.1599 57.4029 17.3932 57.6446 17.5765C57.8862 17.7432 58.1612 17.8765 58.4612 17.9599C59.1281 18.1143 59.822 18.1086 60.4862 17.9432C60.7696 17.8515 60.9862 17.7349 61.1696 17.5849C61.3362 17.4432 61.4612 17.2849 61.5446 17.1015C61.6196 16.9099 61.6529 16.7182 61.6529 16.5182C61.6529 16.1349 61.5696 15.8515 61.3862 15.6599C61.2283 15.4799 61.0277 15.3424 60.8029 15.2599C60.3858 15.1095 59.96 14.9843 59.5279 14.8849C58.9328 14.7292 58.3383 14.5709 57.7446 14.4099C57.3554 14.3181 56.9819 14.1692 56.6363 13.9682C56.3713 13.798 56.1374 13.5838 55.9446 13.3349C55.7796 13.1143 55.6554 12.8659 55.5779 12.6015C55.5082 12.3434 55.4718 12.0773 55.4696 11.8099C55.4583 11.3604 55.5609 10.9153 55.7678 10.5161C55.9747 10.1169 56.2792 9.77651 56.6529 9.52654C57.0187 9.27088 57.4282 9.08447 57.8613 8.97654C58.3064 8.85384 58.7662 8.79217 59.2279 8.79321C59.7359 8.79082 60.2414 8.86384 60.7279 9.00988C61.1841 9.12999 61.6118 9.33961 61.9862 9.62654C62.3466 9.90189 62.64 10.2551 62.8446 10.6599C63.0612 11.0682 63.1613 11.5349 63.1613 12.0765H61.3696C61.3196 11.4099 61.0946 10.9432 60.6946 10.6765C60.2862 10.4015 59.7779 10.2599 59.1529 10.2599C58.9345 10.2587 58.7166 10.281 58.5029 10.3265C58.2917 10.3628 58.0886 10.4362 57.9029 10.5432C57.7201 10.6413 57.5631 10.7812 57.4446 10.9515C57.3279 11.1182 57.2779 11.3349 57.2779 11.5932C57.2779 11.9599 57.3779 12.2515 57.6029 12.4599C57.8279 12.6599 58.1279 12.8099 58.4946 12.9182L58.9363 13.0432C59.5525 13.201 60.1665 13.3677 60.7779 13.5432C61.0946 13.6099 61.3196 13.6682 61.4529 13.7099C61.7862 13.8099 62.0779 13.9599 62.3279 14.1349C62.5779 14.3182 62.7863 14.5349 62.9529 14.7682C63.1196 15.0015 63.2446 15.2515 63.3196 15.5182C63.5076 16.1142 63.498 16.755 63.2923 17.3452C63.0866 17.9353 62.6957 18.4432 62.1779 18.7932C61.7795 19.0576 61.3361 19.2469 60.8696 19.3515C60.3823 19.4774 59.8812 19.5418 59.3779 19.5432C58.8179 19.5467 58.2599 19.4738 57.7196 19.3265C57.2303 19.1947 56.7717 18.9682 56.3696 18.6599C55.9822 18.3564 55.6687 17.9689 55.4529 17.5265C55.2126 17.0099 55.0902 16.4463 55.0946 15.8765H56.8862H56.8779ZM64.1946 11.8682H65.4279V9.64321H67.0696V11.8682H68.5446V13.0932H67.0696V17.0599L67.0779 17.5015C67.1029 17.6265 67.1363 17.7349 67.1779 17.8182C67.2403 17.9075 67.3271 17.977 67.4279 18.0182C67.5362 18.0599 67.6779 18.0765 67.8613 18.0765H68.2029C68.3196 18.0682 68.4362 18.0515 68.5529 18.0182V19.2849L68.0196 19.3432C67.8424 19.3614 67.6643 19.3697 67.4862 19.3682C67.0529 19.3682 66.7029 19.3349 66.4363 19.2515C66.2056 19.1817 65.9945 19.059 65.8196 18.8932C65.6689 18.7217 65.5629 18.5156 65.5113 18.2932C65.4611 18.0237 65.4333 17.7506 65.4279 17.4765V13.0932H64.1946V11.8682ZM73.2779 19.5015C72.6863 19.5015 72.1529 19.4015 71.6862 19.2099C71.2405 19.0208 70.8378 18.7429 70.5029 18.3932C70.1786 18.0352 69.9292 17.6158 69.7696 17.1599C69.5996 16.6495 69.5151 16.1145 69.5196 15.5765C69.5196 15.0099 69.6029 14.4932 69.7696 14.0099C69.9363 13.5265 70.1862 13.1182 70.5029 12.7765C70.8355 12.4261 71.2389 12.1505 71.6862 11.9682C72.1529 11.7682 72.6863 11.6682 73.2779 11.6682C73.8779 11.6682 74.4029 11.7682 74.8612 11.9682C75.3133 12.1431 75.7203 12.4174 76.0521 12.7708C76.3838 13.1242 76.6319 13.5477 76.7779 14.0099C76.9515 14.5136 77.0361 15.0438 77.0279 15.5765C77.0279 16.1515 76.9446 16.6765 76.7779 17.1599C76.6237 17.6188 76.3728 18.0393 76.0422 18.393C75.7115 18.7466 75.3088 19.0252 74.8612 19.2099C74.3581 19.4112 73.8198 19.5104 73.2779 19.5015ZM73.2779 18.2099C73.596 18.2196 73.9112 18.1481 74.1941 18.0024C74.4769 17.8566 74.718 17.6412 74.8946 17.3765C75.0612 17.1265 75.1862 16.8432 75.2612 16.5432C75.4353 15.9162 75.4353 15.2536 75.2612 14.6265C75.1943 14.3276 75.0698 14.0445 74.8946 13.7932C74.7206 13.5453 74.4927 13.3402 74.2279 13.1932C73.9612 13.0349 73.6446 12.9599 73.2779 12.9599C72.9196 12.9599 72.6029 13.0432 72.3279 13.1932C72.0662 13.3412 71.8411 13.5463 71.6696 13.7932C71.4899 14.0451 71.3572 14.3274 71.2779 14.6265C71.1233 15.2561 71.1233 15.9137 71.2779 16.5432C71.3612 16.8432 71.4946 17.1265 71.6696 17.3765C71.846 17.6394 72.0859 17.8536 72.367 17.9993C72.6481 18.1449 72.9614 18.2174 73.2779 18.2099ZM78.5362 11.8682H80.0779V13.3015H80.1112C80.1627 13.0921 80.2532 12.8942 80.3779 12.7182C80.5196 12.5265 80.6946 12.3515 80.8779 12.2015C81.0789 12.0379 81.3037 11.9058 81.5446 11.8099C81.7862 11.7182 82.0279 11.6682 82.2779 11.6682C82.4696 11.6682 82.5946 11.6682 82.6696 11.6849L82.8946 11.7099V13.2932C82.7758 13.2741 82.6562 13.2602 82.5362 13.2515C82.4235 13.2311 82.3092 13.2199 82.1946 13.2182C81.9112 13.2182 81.6529 13.2765 81.4029 13.3849C81.1551 13.4989 80.938 13.6703 80.7696 13.8849C80.5754 14.1152 80.4282 14.3813 80.3362 14.6682C80.2279 14.9849 80.1779 15.3515 80.1779 15.7599V19.3015H78.5362V11.8682ZM88.5862 14.9265C88.5701 14.6694 88.5138 14.4163 88.4196 14.1765C88.3388 13.9472 88.2111 13.7371 88.0446 13.5599C87.8844 13.3763 87.6851 13.231 87.4612 13.1349C87.231 13.0205 86.9766 12.9634 86.7196 12.9682C86.4362 12.9682 86.1696 13.0099 85.9279 13.1182C85.7008 13.2133 85.4964 13.3553 85.3279 13.5349C85.1599 13.7157 85.0246 13.9244 84.9279 14.1515C84.8274 14.3981 84.771 14.6604 84.7612 14.9265H88.5946H88.5862ZM84.7696 16.0099C84.7696 16.2932 84.8029 16.5682 84.8779 16.8432C84.9612 17.1099 85.0946 17.3432 85.2529 17.5432C85.4196 17.7432 85.6196 17.9099 85.8696 18.0349C86.1196 18.1515 86.4196 18.2015 86.7612 18.2015C87.2446 18.2015 87.6279 18.1015 87.9112 17.9015C88.2112 17.6932 88.4279 17.3849 88.5779 16.9682H90.1279C90.0508 17.3541 89.9009 17.7217 89.6862 18.0515C89.4696 18.3682 89.2196 18.6349 88.9196 18.8515C88.6159 19.0659 88.2776 19.2266 87.9196 19.3265C87.5444 19.4414 87.1536 19.4977 86.7612 19.4932C86.1779 19.4932 85.6612 19.4099 85.2112 19.2099C84.7748 19.029 84.3826 18.7562 84.0612 18.4099C83.7434 18.0483 83.5024 17.6258 83.3529 17.1682C83.1962 16.6553 83.1203 16.1211 83.1279 15.5849C83.1279 15.0599 83.2112 14.5682 83.3779 14.0932C83.5349 13.6364 83.7751 13.2126 84.0862 12.8432C84.4031 12.481 84.7919 12.1886 85.2279 11.9849C85.6977 11.7676 86.2104 11.6594 86.7279 11.6682C87.3112 11.6682 87.8279 11.7932 88.2862 12.0432C88.7612 12.2765 89.1446 12.6015 89.4529 13.0015C89.768 13.418 89.9948 13.8944 90.1196 14.4015C90.2612 14.9182 90.2946 15.4515 90.2279 16.0099H84.7696ZM25.6529 5.93488C25.2946 5.93488 24.9696 5.89321 24.6612 5.80988C24.3777 5.73421 24.1116 5.604 23.8779 5.42654C23.6556 5.24815 23.4785 5.01972 23.3613 4.75988C23.2363 4.50154 23.1779 4.17654 23.1779 3.81821H23.9446C23.9446 4.08488 23.9946 4.31821 24.0946 4.50988C24.1946 4.69321 24.3196 4.84321 24.4779 4.96821C24.6446 5.07654 24.8279 5.15988 25.0446 5.21821C25.2529 5.25988 25.4863 5.28488 25.7196 5.28488C25.9279 5.28488 26.1196 5.25988 26.3029 5.20154C26.4863 5.14321 26.6362 5.05988 26.7612 4.95154C26.8973 4.8408 27.0069 4.70098 27.0819 4.54236C27.1569 4.38373 27.1954 4.21033 27.1946 4.03488C27.1946 3.80988 27.1529 3.63488 27.0696 3.49321C26.9904 3.35849 26.8749 3.24875 26.7363 3.17654C26.5874 3.09033 26.4233 3.03373 26.2529 3.00988C26.0626 2.98099 25.8704 2.96706 25.6779 2.96821L25.3946 2.97654C25.3112 2.97567 25.2278 2.97845 25.1446 2.98488V2.32654C25.2113 2.34321 25.3029 2.34321 25.4113 2.34321H25.6779C25.8696 2.34321 26.0446 2.32654 26.2029 2.29321C26.3696 2.25988 26.5029 2.19321 26.6196 2.10988C26.7365 2.02437 26.8285 1.90933 26.8863 1.77654C26.9529 1.64321 26.9863 1.46821 26.9863 1.26821C26.9863 1.07654 26.9446 0.926544 26.8779 0.801544C26.8108 0.67617 26.7097 0.572213 26.5863 0.501544C26.4594 0.419735 26.3179 0.363148 26.1696 0.334877C26.0135 0.300956 25.8543 0.28419 25.6946 0.284877C25.2529 0.284877 24.9113 0.384877 24.6529 0.584877C24.4029 0.776544 24.2529 1.08488 24.2113 1.52654H23.4446C23.4613 1.20988 23.5279 0.926544 23.6363 0.693211C23.7523 0.460681 23.9206 0.258171 24.1279 0.101544C24.3389 -0.0621949 24.5794 -0.183848 24.8363 -0.25679C25.3833 -0.410573 25.9613 -0.416324 26.5113 -0.273456C26.7613 -0.20679 26.9863 -0.106789 27.1696 0.0265439C27.3529 0.159877 27.5029 0.326544 27.6029 0.534877C27.6943 0.716845 27.7487 0.915104 27.763 1.11821C27.7773 1.32131 27.7512 1.52524 27.6862 1.71821C27.6301 1.85797 27.5513 1.9875 27.4529 2.10154C27.2761 2.32289 27.0387 2.48794 26.7696 2.57654V2.60154C26.9696 2.64321 27.1446 2.70988 27.2946 2.80154C27.585 2.96938 27.8021 3.23994 27.9029 3.55988C27.9529 3.72654 27.9779 3.88488 27.9779 4.04321C27.9643 4.50661 27.7699 4.94628 27.4362 5.26821C27.2529 5.45988 27.0196 5.61821 26.7113 5.75154C26.4196 5.87654 26.0696 5.93488 25.6446 5.93488H25.6529ZM30.1862 5.89321C30.0008 5.89425 29.816 5.87185 29.6362 5.82654C29.4689 5.79184 29.3102 5.72382 29.1696 5.62654C29.0402 5.52269 28.9349 5.39188 28.8612 5.24321C28.7845 5.06441 28.7475 4.87105 28.7529 4.67654C28.7529 4.42654 28.7946 4.22654 28.8779 4.06821C28.9612 3.90988 29.0696 3.78488 29.2113 3.69321C29.3446 3.58488 29.5029 3.50988 29.6779 3.45988C30.0376 3.3578 30.4058 3.28807 30.7779 3.25154C30.9529 3.22654 31.1112 3.20154 31.2446 3.16821C31.3608 3.13576 31.4687 3.07894 31.5612 3.00154C31.6446 2.93488 31.6862 2.83488 31.6862 2.69321C31.6935 2.55925 31.6617 2.42606 31.5946 2.30988C31.5391 2.21684 31.4581 2.14165 31.3612 2.09321C31.2656 2.04096 31.161 2.00705 31.0529 1.99321C30.9426 1.97662 30.8312 1.96827 30.7196 1.96821C30.4112 1.96821 30.1612 2.02654 29.9612 2.14321C29.7612 2.25988 29.6529 2.47654 29.6279 2.79321H28.9196C28.9223 2.55571 28.9793 2.32198 29.0862 2.10988C29.1806 1.92933 29.318 1.77479 29.4862 1.65988C29.6529 1.54321 29.8446 1.45988 30.0612 1.40988C30.4794 1.31099 30.9135 1.29965 31.3362 1.37654C31.5362 1.40154 31.7112 1.45988 31.8696 1.55154C32.0279 1.63488 32.1529 1.75988 32.2446 1.91821C32.3446 2.07654 32.3862 2.27654 32.3862 2.53488V4.78488C32.3862 4.95154 32.3946 5.07654 32.4112 5.15154C32.4362 5.23488 32.5029 5.26821 32.6112 5.26821C32.6878 5.26473 32.7635 5.25071 32.8362 5.22654V5.78488C32.7112 5.85988 32.5362 5.89321 32.3196 5.89321C32.1586 5.90122 32.0007 5.84758 31.8779 5.74321C31.7696 5.63488 31.7112 5.46821 31.7112 5.22654C31.5196 5.46821 31.2946 5.64321 31.0279 5.74321C30.762 5.84492 30.4793 5.8958 30.1946 5.89321H30.1862ZM30.3529 5.26821C30.5779 5.26821 30.7863 5.24321 30.9529 5.18488C31.1055 5.12694 31.2466 5.04229 31.3696 4.93488C31.4696 4.82654 31.5446 4.72654 31.5946 4.60988C31.6446 4.49321 31.6779 4.38488 31.6779 4.27654V3.54321C31.5738 3.62549 31.4505 3.67997 31.3196 3.70154L30.8612 3.77654L30.3779 3.84321C30.2289 3.86239 30.0831 3.90163 29.9446 3.95988C29.8196 4.0151 29.7106 4.10112 29.6279 4.20988C29.5414 4.33117 29.4975 4.47767 29.5029 4.62654C29.4991 4.73327 29.522 4.83925 29.5696 4.93488C29.6199 5.01107 29.6851 5.07627 29.7612 5.12654C29.843 5.17816 29.9333 5.21484 30.0279 5.23488C30.1279 5.25988 30.2362 5.26821 30.3446 5.26821H30.3529ZM33.6029 1.43488H36.5696V2.06821H34.3196V5.80154H33.6029V1.43488ZM37.2529 1.43488H37.9696V2.02654H37.9862C38.1029 1.77654 38.2862 1.60988 38.5362 1.50154C38.7862 1.39321 39.0696 1.33488 39.3696 1.33488C39.7029 1.33488 39.9946 1.39321 40.2446 1.51821C40.4946 1.64321 40.7029 1.80988 40.8612 2.01821C41.0279 2.23488 41.1612 2.47654 41.2446 2.75154C41.4199 3.32739 41.4199 3.94237 41.2446 4.51821C41.1688 4.7798 41.0413 5.02351 40.8696 5.23488C40.704 5.44137 40.493 5.60679 40.2529 5.71821C39.9809 5.84101 39.6846 5.90083 39.3862 5.89321C39.1297 5.89201 38.8755 5.844 38.6362 5.75154C38.5063 5.7002 38.3831 5.63303 38.2696 5.55154C38.1563 5.45795 38.0604 5.34511 37.9862 5.21821H37.9696V7.46821H37.2529V1.43488ZM39.3112 5.26821C39.5529 5.26821 39.7529 5.22654 39.9279 5.12654C40.0946 5.02654 40.2279 4.90154 40.3279 4.74321C40.4316 4.57688 40.5049 4.39348 40.5446 4.20154C40.5946 4.00154 40.6112 3.79321 40.6112 3.58488C40.6112 3.37654 40.5862 3.18488 40.5279 2.99321C40.4796 2.80358 40.3947 2.62523 40.2779 2.46821C40.171 2.3138 40.028 2.18791 39.8612 2.10154C39.678 2.0092 39.4748 1.96341 39.2696 1.96821C39.0279 1.96821 38.8196 2.01821 38.6529 2.10988C38.4888 2.20416 38.349 2.33542 38.2446 2.49321C38.1354 2.65252 38.0564 2.83045 38.0112 3.01821C37.9174 3.42115 37.9174 3.84027 38.0112 4.24321C38.0696 4.43488 38.1446 4.60988 38.2529 4.75988C38.3612 4.91821 38.5029 5.04321 38.6779 5.13488C38.8529 5.21821 39.0612 5.26821 39.3112 5.26821ZM42.7362 7.54321C42.6529 7.54321 42.5696 7.54321 42.4862 7.52654C42.4011 7.51616 42.3172 7.4966 42.2362 7.46821V6.80154L42.4446 6.87654C42.5147 6.89845 42.5878 6.90968 42.6612 6.90988C42.8029 6.90988 42.9279 6.87654 43.0112 6.80988C43.1029 6.74321 43.1779 6.64321 43.2529 6.50988L43.5446 5.77654L41.8196 1.43488H42.6279L43.8946 5.00988H43.9112L45.1279 1.43488H45.8862L43.9946 6.37654C43.9112 6.59321 43.8279 6.76821 43.7446 6.91821C43.6773 7.05232 43.5871 7.17361 43.4779 7.27654C43.3849 7.3696 43.2704 7.4383 43.1446 7.47654C43.0136 7.52327 42.8753 7.54586 42.7362 7.54321ZM48.1779 5.89321C47.6029 5.89321 47.1529 5.76821 46.8279 5.50988C46.5029 5.25154 46.3279 4.87654 46.3029 4.40154H47.0196C47.0446 4.71821 47.1612 4.95154 47.3779 5.09321C47.5862 5.23488 47.8529 5.30154 48.1696 5.30154C48.5112 5.30154 48.7779 5.23488 48.9612 5.08488C49.048 5.02023 49.1182 4.9359 49.166 4.83884C49.2138 4.74177 49.2379 4.63473 49.2362 4.52654C49.242 4.43037 49.2263 4.33412 49.1902 4.24476C49.1542 4.1554 49.0988 4.07517 49.0279 4.00988C48.8862 3.88488 48.6529 3.82654 48.3112 3.82654H47.7362V3.24321H48.1946C48.4446 3.24321 48.6696 3.19321 48.8446 3.09321C49.0279 2.98488 49.1112 2.80154 49.1112 2.54321C49.1112 2.37654 49.0279 2.23488 48.8779 2.10988C48.7279 1.98488 48.5029 1.92654 48.1946 1.92654C48.0657 1.92698 47.9372 1.94095 47.8112 1.96821C47.6936 1.99424 47.581 2.03928 47.4779 2.10154C47.3772 2.16541 47.2918 2.25078 47.2279 2.35154C47.1551 2.46149 47.1094 2.58716 47.0946 2.71821H46.3779C46.3946 2.45154 46.4612 2.21821 46.5696 2.05154C46.6735 1.88163 46.8163 1.73883 46.9862 1.63488C47.1529 1.51821 47.3446 1.44321 47.5612 1.40154C47.9817 1.31368 48.4158 1.31368 48.8362 1.40154C49.0362 1.44321 49.2029 1.51821 49.3529 1.61821C49.5029 1.71821 49.6196 1.83488 49.7029 1.98488C49.7862 2.12654 49.8362 2.30154 49.8362 2.50988C49.8362 2.75988 49.7612 2.96821 49.6196 3.12654C49.4943 3.27355 49.3247 3.3759 49.1362 3.41821V3.43488C49.2362 3.45154 49.3446 3.48488 49.4446 3.53488C49.5446 3.58488 49.6362 3.65988 49.7112 3.75154C49.7946 3.83488 49.8529 3.94321 49.9029 4.06821C49.9529 4.19321 49.9862 4.34321 49.9862 4.50988C49.9908 4.71804 49.9419 4.9239 49.8441 5.10774C49.7464 5.29158 49.603 5.44726 49.4279 5.55988C49.2491 5.67575 49.0518 5.7603 48.8446 5.80988C48.6269 5.86628 48.4028 5.89429 48.1779 5.89321ZM50.9196 1.43488H51.6362V5.00154L53.6862 1.43488H54.6029V5.80154H53.8862V2.23488L51.8362 5.80154H50.9196V1.43488ZM56.8112 2.06821H55.2612V1.43488H59.0779V2.06821H57.5279V5.80154H56.8112V2.06821ZM61.5862 5.90154C61.2362 5.90154 60.9279 5.84321 60.6696 5.72654C60.4194 5.62008 60.197 5.45757 60.0196 5.25154C59.8417 5.03862 59.7085 4.79205 59.6279 4.52654C59.5422 4.22863 59.5001 3.91987 59.5029 3.60988C59.5029 3.27654 59.5529 2.97654 59.6529 2.70154C59.7447 2.43572 59.8861 2.18971 60.0696 1.97654C60.2515 1.77544 60.4727 1.61378 60.7196 1.50154C60.9696 1.39321 61.2446 1.33488 61.5446 1.33488C61.9279 1.33488 62.2446 1.41821 62.5029 1.58488C62.7529 1.73488 62.9612 1.94321 63.1112 2.18488C63.2696 2.43488 63.3779 2.70154 63.4279 3.00154C63.4946 3.29321 63.5112 3.56821 63.5112 3.83488H60.2612C60.2529 4.02654 60.2696 4.20988 60.3196 4.38488C60.3694 4.55292 60.4547 4.70832 60.5697 4.84058C60.6847 4.97284 60.8268 5.07888 60.9863 5.15154C61.1696 5.23488 61.3696 5.26821 61.6113 5.26821C61.9113 5.26821 62.1612 5.20154 62.3446 5.05988C62.5446 4.91821 62.6779 4.70154 62.7362 4.41821H63.4446C63.3826 4.85722 63.1562 5.25632 62.8112 5.53488C62.453 5.78491 62.0228 5.91076 61.5862 5.89321V5.90154ZM62.7529 3.20154C62.7428 3.03481 62.7033 2.87118 62.6362 2.71821C62.5769 2.56983 62.4859 2.43618 62.3696 2.32654C62.2617 2.21406 62.131 2.12597 61.9862 2.06821C61.8344 2.00003 61.6694 1.9659 61.5029 1.96821C61.3112 1.96821 61.1446 2.00154 61.0029 2.06821C60.8586 2.12686 60.7281 2.21483 60.6196 2.32654C60.5118 2.44293 60.427 2.57864 60.3696 2.72654C60.3042 2.87718 60.2648 3.03777 60.2529 3.20154H62.7529ZM66.7529 1.43488H68.7612C68.9529 1.43488 69.1362 1.45154 69.3112 1.47654C69.4862 1.50154 69.6446 1.55988 69.7862 1.64321C69.9249 1.71542 70.0404 1.82515 70.1196 1.95988C70.2029 2.10154 70.2529 2.27654 70.2529 2.50154C70.2529 2.73488 70.1946 2.92654 70.0862 3.07654C69.9591 3.23248 69.7961 3.35541 69.6112 3.43488V3.44321C69.8612 3.49321 70.0613 3.60988 70.2113 3.80154C70.3613 3.98488 70.4362 4.21821 70.4362 4.51821C70.4362 4.70154 70.4029 4.87654 70.3362 5.03488C70.2761 5.18975 70.1822 5.32925 70.0612 5.44321C69.9446 5.55154 69.8112 5.64321 69.6446 5.70988C69.474 5.77306 69.2932 5.80414 69.1113 5.80154H66.7529V1.43488ZM68.9779 5.19321C69.2112 5.19321 69.3946 5.12654 69.5112 4.99321C69.6359 4.84732 69.7013 4.65999 69.6946 4.46821C69.6991 4.37986 69.6843 4.29159 69.6512 4.20955C69.6181 4.12752 69.5675 4.05369 69.5029 3.99321C69.3696 3.87654 69.1529 3.81821 68.8529 3.81821H67.4612V5.19321H68.9779ZM68.6862 3.22654C68.9946 3.22654 69.2112 3.16821 69.3279 3.05988C69.389 3.00245 69.437 2.93253 69.4687 2.85488C69.5003 2.77722 69.5148 2.69365 69.5112 2.60988C69.5112 2.42654 69.4529 2.29321 69.3362 2.19321C69.2196 2.09321 69.0029 2.04321 68.6862 2.04321H67.4612V3.22654H68.6862ZM13.7029 10.6515C13.7135 9.91764 13.9092 9.19829 14.2719 8.56021C14.6347 7.92213 15.1527 7.386 15.7779 7.00154C15.38 6.43301 14.855 5.96521 14.2444 5.63536C13.6339 5.3055 12.9548 5.12272 12.2613 5.10154C10.7863 4.94321 9.35292 5.98488 8.59458 5.98488C7.83625 5.98488 6.67792 5.11821 5.42792 5.14321C4.62066 5.16868 3.83384 5.40323 3.14439 5.82391C2.45494 6.24459 1.88647 6.837 1.49459 7.54321C-0.205415 10.4849 1.06125 14.8182 2.69459 17.2099C3.50292 18.3765 4.46125 19.6682 5.70292 19.6265C6.92792 19.5765 7.37792 18.8515 8.85292 18.8515C10.3113 18.8515 10.7446 19.6265 12.0196 19.6015C13.3196 19.5765 14.1446 18.4265 14.9363 17.2432C15.5209 16.4135 15.9709 15.4966 16.2696 14.5265C15.5085 14.2041 14.8592 13.6647 14.4028 12.9755C13.9463 12.2864 13.7029 11.4781 13.7029 10.6515ZM11.2946 3.53488C12.0071 2.67567 12.3568 1.57267 12.2696 0.459877C11.1809 0.574967 10.1753 1.09559 9.45292 1.91821C9.09882 2.32095 8.82752 2.78949 8.65451 3.29709C8.48149 3.80468 8.41016 4.34138 8.44458 4.87654C8.98876 4.88167 9.52704 4.76365 10.0191 4.5313C10.5112 4.29896 10.9444 3.95832 11.2863 3.53488H11.2946Z" fill="#7F7F7F"/>
</g>
<defs>
<clipPath id="clip0_227_350">
<rect width="16.6667" height="20" fill="white" transform="translate(0.260864)"/>
</clipPath>
</defs>
</svg>
